<svg xmlns="http://www.w3.org/2000/svg" width="18" height="16.733" viewBox="0 0 18 16.733">
  <g id="icon-monitoring" transform="translate(213.558 -588.25)">
    <path id="Path_10" data-name="Path 10" d="M42.57,581.32H27.916A1.676,1.676,0,0,0,26.243,583v10.057a1.677,1.677,0,0,0,1.673,1.679H42.57a1.677,1.677,0,0,0,1.673-1.679V583A1.676,1.676,0,0,0,42.57,581.32Zm.256,10.458a1.676,1.676,0,0,1-1.673,1.679H29.334a1.676,1.676,0,0,1-1.673-1.679v-7.5a1.677,1.677,0,0,1,1.673-1.679H41.152a1.677,1.677,0,0,1,1.673,1.679Z" transform="translate(-239.801 6.93)" fill="#172b4d"/>
    <rect id="Rectangle_11" data-name="Rectangle 11" width="17.999" height="1.712" rx="0.856" transform="translate(-213.558 603.271)" fill="#172b4d"/>
  </g>
</svg>
